<?xml version="1.0" encoding="UTF-8" standalone="no"?>
<!-- Created with Inkscape (http://www.inkscape.org/) -->

<svg
   width="497.53503"
   height="461.28326"
   viewBox="0 0 497.53503 461.28326"
   version="1.1"
   id="svg1"
   xmlns="http://www.w3.org/2000/svg"
   xmlns:svg="http://www.w3.org/2000/svg">
  <defs
     id="defs1">
    <clipPath
       clipPathUnits="userSpaceOnUse"
       id="clipPath101">
      <path
         d="M 0,2891.339 H 5725.984 V 0 H 0 Z"
         transform="translate(-4145.8453,-1011.8958)"
         id="path101" />
    </clipPath>
    <clipPath
       clipPathUnits="userSpaceOnUse"
       id="clipPath103">
      <path
         d="M 0,2891.339 H 5725.984 V 0 H 0 Z"
         transform="translate(-4257.9645,-1007.3277)"
         id="path103" />
    </clipPath>
    <clipPath
       clipPathUnits="userSpaceOnUse"
       id="clipPath105">
      <path
         d="M 0,2891.339 H 5725.984 V 0 H 0 Z"
         transform="translate(-4368.6056,-1006.9269)"
         id="path105" />
    </clipPath>
    <clipPath
       clipPathUnits="userSpaceOnUse"
       id="clipPath107">
      <path
         d="M 0,2891.339 H 5725.984 V 0 H 0 Z"
         transform="translate(-4483.5245,-982.89415)"
         id="path107" />
    </clipPath>
    <clipPath
       clipPathUnits="userSpaceOnUse"
       id="clipPath109">
      <path
         d="M 0,2891.339 H 5725.984 V 0 H 0 Z"
         transform="translate(-4591.7179,-934.21232)"
         id="path109" />
    </clipPath>
    <clipPath
       clipPathUnits="userSpaceOnUse"
       id="clipPath111">
      <path
         d="M 0,2891.339 H 5725.984 V 0 H 0 Z"
         transform="translate(-4711.3087,-901.64065)"
         id="path111" />
    </clipPath>
    <clipPath
       clipPathUnits="userSpaceOnUse"
       id="clipPath113">
      <path
         d="M 0,2891.339 H 5725.984 V 0 H 0 Z"
         transform="translate(-4825.7618,-1032.6873)"
         id="path113" />
    </clipPath>
    <clipPath
       clipPathUnits="userSpaceOnUse"
       id="clipPath115">
      <path
         d="M 0,2891.339 H 5725.984 V 0 H 0 Z"
         transform="translate(-4943.7149,-1150.1379)"
         id="path115" />
    </clipPath>
    <clipPath
       clipPathUnits="userSpaceOnUse"
       id="clipPath117">
      <path
         d="M 0,2891.339 H 5725.984 V 0 H 0 Z"
         transform="translate(-5050.3015,-1233.1254)"
         id="path117" />
    </clipPath>
    <clipPath
       clipPathUnits="userSpaceOnUse"
       id="clipPath119">
      <path
         d="M 0,2891.339 H 5725.984 V 0 H 0 Z"
         transform="translate(-5154.0406,-1290.6117)"
         id="path119" />
    </clipPath>
    <clipPath
       clipPathUnits="userSpaceOnUse"
       id="clipPath121">
      <path
         d="M 0,2891.339 H 5725.984 V 0 H 0 Z"
         transform="translate(-5259.4582,-1314.7575)"
         id="path121" />
    </clipPath>
  </defs>
  <g
     id="g123"
     style="display:inline"
     transform="matrix(0.32198434,0,0,0.32108898,-1764.9203,-589.72227)">
    <path
       id="path100"
       d="m 0,0 -23.972,1.255 c -7.297,0.382 -12.365,7.421 -10.413,14.463 l 13.469,48.59 c 1.372,4.948 5.876,8.373 11.011,8.373 h 22.289 c 7.373,0 12.817,-6.88 11.12,-14.055 L 11.717,8.781 C 10.446,3.407 5.515,-0.289 0,0"
       style="fill:#67caab;fill-opacity:1;fill-rule:nonzero;stroke:none"
       transform="matrix(1.3333333,0,0,-1.3333333,5527.7936,2505.9257)"
       clip-path="url(#clipPath101)" />
    <path
       id="path102"
       d="m 0,0 -32.21,-2.637 c -7.909,0.176 -13.85,9.919 -12.206,20.019 l 16.827,68.709 c 1.154,7.097 5.794,12.189 11.341,12.447 l 28.359,5.314 c 7.966,0.371 14.301,-9.127 12.942,-19.404 L 12.078,13.061 C 11.06,5.365 5.977,-0.133 0,0"
       style="fill:#67caab;fill-opacity:1;fill-rule:nonzero;stroke:none"
       transform="matrix(1.3333333,0,0,-1.3333333,5677.2859,2512.0165)"
       clip-path="url(#clipPath103)" />
    <path
       id="path104"
       d="m 0,0 -33.872,-12.022 c -6.553,-0.826 -12.095,4.809 -11.159,11.348 l 22.581,145.865 c 0.645,4.507 4.251,8.01 8.774,8.526 l 28.766,8.7 c 6.429,0.733 11.852,-4.735 11.067,-11.158 L 8.682,8.714 C 8.125,4.164 4.548,0.574 0,0"
       style="fill:#67caab;fill-opacity:1;fill-rule:nonzero;stroke:none"
       transform="matrix(1.3333333,0,0,-1.3333333,5824.8073,2512.5509)"
       clip-path="url(#clipPath105)" />
    <path
       id="path106"
       d="m 0,0 -39.717,-10.039 c -5.075,-1.282 -9.906,2.81 -9.474,8.027 l 21.03,254.509 c 0.24,2.901 2.108,5.412 4.817,6.475 l 34.57,13.567 c 5.193,2.038 10.746,-2.003 10.403,-7.571 L 5.746,6.929 C 5.542,3.615 3.219,0.814 0,0"
       style="fill:#67caab;fill-opacity:1;fill-rule:nonzero;stroke:none"
       transform="matrix(1.3333333,0,0,-1.3333333,5978.0325,2544.5945)"
       clip-path="url(#clipPath107)" />
    <path
       id="path108"
       d="m 0,0 -39.717,-10.038 c -5.075,-1.283 -9.906,2.809 -9.475,8.026 l 25.319,429.851 c 0.24,2.9 2.108,5.411 4.817,6.474 l 34.57,13.568 c 5.193,2.038 10.746,-2.004 10.403,-7.572 L 5.746,6.929 C 5.542,3.615 3.219,0.814 0,0"
       style="fill:#67caab;fill-opacity:1;fill-rule:nonzero;stroke:none"
       transform="matrix(1.3333333,0,0,-1.3333333,6122.2904,2609.5036)"
       clip-path="url(#clipPath109)" />
    <path
       id="path110"
       d="m 0,0 -33.244,-14.201 c -8.381,-3.581 -17.678,2.63 -17.58,11.744 l 6.41,590.772 c 0.054,4.978 3.029,9.459 7.595,11.441 l 26.291,11.412 c 8.33,3.616 17.638,-2.485 17.647,-11.567 L 7.663,11.619 C 7.668,6.56 4.652,1.987 0,0"
       style="fill:#67caab;fill-opacity:1;fill-rule:nonzero;stroke:none"
       transform="matrix(1.3333333,0,0,-1.3333333,6281.7448,2652.9325)"
       clip-path="url(#clipPath111)" />
    <path
       id="path112"
       d="m 0,0 -34.168,-12.239 c -5.751,-2.06 -11.833,2.108 -11.987,8.215 l -10.427,415.458 c -0.093,3.696 2.093,7.07 5.504,8.497 l 29.019,12.136 c 5.775,2.415 12.184,-1.681 12.419,-7.936 L 5.936,8.777 C 6.083,4.87 3.681,1.318 0,0"
       style="fill:#67caab;fill-opacity:1;fill-rule:nonzero;stroke:none"
       transform="matrix(1.3333333,0,0,-1.3333333,6434.3489,2478.2036)"
       clip-path="url(#clipPath113)" />
    <path
       id="path114"
       d="m 0,0 -28.385,-8.177 c -8.192,-2.36 -16.496,3.361 -17.21,11.856 l -19.584,232.905 c -0.469,5.575 2.546,10.863 7.582,13.3 l 22.517,10.895 c 8.414,4.072 18.322,-1.422 19.326,-10.715 L 9.697,14.44 C 10.402,7.91 6.311,1.818 0,0"
       style="fill:#67caab;fill-opacity:1;fill-rule:nonzero;stroke:none"
       transform="matrix(1.3333333,0,0,-1.3333333,6591.6197,2321.6029)"
       clip-path="url(#clipPath115)" />
    <path
       id="path116"
       d="m 0,0 -31.464,-5.09 c -5.908,-0.955 -11.451,3.12 -12.3,9.044 l -19.475,135.823 c -0.788,5.501 2.765,10.689 8.179,11.943 l 31.599,7.314 c 6.12,1.416 12.137,-2.719 13.009,-8.94 L 8.888,12.047 C 9.695,6.282 5.747,0.93 0,0"
       style="fill:#67caab;fill-opacity:1;fill-rule:nonzero;stroke:none"
       transform="matrix(1.3333333,0,0,-1.3333333,6733.7351,2210.9528)"
       clip-path="url(#clipPath117)" />
    <path
       id="path118"
       d="m 0,0 -28.349,-5.584 c -6.417,-1.264 -12.612,3.019 -13.696,9.47 l -11.681,69.501 c -1.013,6.023 2.814,11.801 8.755,13.22 l 28.996,6.925 c 6.594,1.574 13.129,-2.81 14.173,-9.509 L 9.23,13.181 C 10.189,7.022 6.116,1.205 0,0"
       style="fill:#67caab;fill-opacity:1;fill-rule:nonzero;stroke:none"
       transform="matrix(1.3333333,0,0,-1.3333333,6872.054,2134.3044)"
       clip-path="url(#clipPath119)" />
    <path
       id="path120"
       d="m 0,0 h -29.99 c -4.944,0 -9.216,3.453 -10.252,8.287 l -8.697,40.561 c -1.4,6.527 3.576,12.683 10.252,12.683 h 25.87 c 4.574,0 8.62,-2.964 9.998,-7.326 L 9.998,13.645 C 12.133,6.886 7.087,0 0,0"
       style="fill:#67caab;fill-opacity:1;fill-rule:nonzero;stroke:none"
       transform="matrix(1.3333333,0,0,-1.3333333,7012.6107,2102.1101)"
       clip-path="url(#clipPath121)" />
  </g>
  <path
     id="text121"
     style="font-size:4.4211px;display:inline;fill:#000000;stroke-width:0.368424"
     d="m 132.16044,314.53523 v 41.28906 c 0,11.37554 4.01367,21.06529 12.04101,29.0703 8.02734,8.00502 17.74508,12.00782 29.15235,12.00782 7.46401,0 14.3638,-1.82515 20.70117,-5.47657 6.33738,-3.6514 11.33645,-8.63727 14.99805,-14.95703 3.66159,-6.31974 5.49219,-13.20126 5.49219,-20.64452 v -41.28906 h -5.70313 v 41.28906 c 0,9.83071 -3.45087,18.18685 -10.35156,25.06835 -6.90069,6.88151 -15.27859,10.32227 -25.13672,10.32227 -9.71731,0 -18.09715,-3.44076 -25.13867,-10.32227 -6.90069,-6.8815 -10.35156,-15.23764 -10.35156,-25.06835 v -41.28906 z m 111.11523,0 c -6.0557,0 -11.26706,2.52817 -15.63281,7.58398 -4.22492,5.05579 -6.33789,11.16378 -6.33789,18.32616 v 56.66798 h 6.12696 v -56.66798 c 0,-5.33667 1.54821,-9.89955 4.64648,-13.6914 3.09826,-3.93229 6.83152,-5.89844 11.19726,-5.89844 z m 116.39454,0 c -6.05572,0 -11.26513,2.52817 -15.63087,7.58398 -4.22491,5.05579 -6.33789,11.16378 -6.33789,18.32616 v 56.66798 h 6.12696 v -56.66798 c 0,-5.33667 1.54821,-9.89955 4.64648,-13.6914 3.09827,-3.93229 6.82957,-5.89844 11.19532,-5.89844 z m -303.134772,0.21093 c -11.266437,0 -20.984176,4.0733 -29.152343,12.21875 -8.027337,8.00501 -12.041015,17.69476 -12.041015,29.07031 0,11.23511 4.013678,20.85436 12.041015,28.85937 8.168167,8.00502 17.885906,12.00782 29.152343,12.00782 8.73149,0 16.546573,-2.38719 23.447266,-7.16211 6.900693,-4.91536 11.899777,-11.23484 14.998046,-18.95898 2.957445,7.58369 7.74621,13.76218 14.36524,18.5371 6.75986,4.77493 14.29452,7.30311 22.60351,7.58399 v -5.6875 c -9.57647,-0.42132 -17.67393,-4.00308 -24.29296,-10.74414 -6.47821,-6.8815 -9.718756,-15.09665 -9.718756,-24.64648 0,-11.23512 -4.083792,-20.85437 -12.251955,-28.85938 -8.027337,-8.14545 -17.743123,-12.21875 -29.150391,-12.21875 z m 233.001952,0 c -11.40726,0 -21.125,4.0733 -29.15234,12.21875 -8.02734,8.00501 -12.04102,17.69476 -12.04102,29.07031 0,11.23511 4.01368,20.85436 12.04102,28.85937 8.02734,8.00502 17.74508,12.00782 29.15234,12.00782 11.40727,0 21.12501,-4.0028 29.15235,-12.00782 8.02733,-8.00501 12.04101,-17.62426 12.04101,-28.85937 0,-11.37555 -4.01368,-21.0653 -12.04101,-29.07031 -8.02734,-8.14545 -17.74508,-12.21875 -29.15235,-12.21875 z m 117.24218,0 c -11.26643,0 -20.98417,4.0733 -29.15234,12.21875 -8.02734,8.00501 -12.04101,17.69476 -12.04101,29.07031 0,11.23511 4.01367,20.85436 12.04101,28.85937 8.16817,8.00502 17.88591,12.00782 29.15234,12.00782 8.73149,0 16.54658,-2.38719 23.44728,-7.16211 6.90069,-4.91536 11.89978,-11.23484 14.99805,-18.95898 2.95743,7.58369 7.74619,13.76218 14.36522,18.5371 6.75987,4.77493 14.29452,7.30311 22.60352,7.58399 v -5.6875 c -9.57647,-0.42132 -17.67394,-4.00308 -24.29297,-10.74414 -6.4782,-6.8815 -9.7168,-15.09665 -9.7168,-24.64648 0,-11.23512 -4.08573,-20.85437 -12.2539,-28.85938 -8.02734,-8.14545 -17.74312,-12.21875 -29.1504,-12.21875 z m -350.244132,5.6875 c 4.929067,0 9.575663,0.98308 13.941407,2.94922 4.365744,1.8257 8.097042,4.35389 11.195313,7.58398 3.2391,3.08966 5.774672,6.81046 7.605468,11.16407 1.971627,4.3536 2.957031,8.91843 2.957031,13.69336 0,9.83071 -3.520976,18.18685 -10.562499,25.06835 -6.900694,6.88151 -15.278586,10.32227 -25.13672,10.32227 -9.717302,0 -18.097148,-3.44076 -25.138672,-10.32227 -6.900692,-6.8815 -10.351562,-15.23764 -10.351562,-25.06835 0,-6.31976 1.548214,-12.2182 4.646485,-17.69532 3.2391,-5.47712 7.605267,-9.75995 13.097656,-12.8496 5.492388,-3.2301 11.408723,-4.84571 17.746093,-4.84571 z m 233.001952,0 c 9.85813,0 18.23798,3.51125 25.13868,10.5332 6.90069,6.8815 10.35156,15.23764 10.35156,25.06836 0,9.69028 -3.45087,17.97592 -10.35156,24.85742 -6.9007,6.88151 -15.28055,10.32227 -25.13868,10.32227 -9.7173,0 -18.09715,-3.44076 -25.13867,-10.32227 -6.90069,-6.8815 -10.34961,-15.16714 -10.34961,-24.85742 0,-9.83072 3.44892,-18.18686 10.34961,-25.06836 7.04152,-7.02195 15.42137,-10.5332 25.13867,-10.5332 z m 117.24218,0 c 4.92907,0 9.57567,0.98308 13.94141,2.94922 4.36575,1.8257 8.09705,4.35389 11.19532,7.58398 3.2391,3.08966 5.77467,6.81046 7.60547,11.16407 1.97162,4.3536 2.95703,8.91843 2.95703,13.69336 0,9.83071 -3.52097,18.18685 -10.5625,25.06835 -6.90069,6.88151 -15.27859,10.32227 -25.13673,10.32227 -9.7173,0 -18.09714,-3.44076 -25.13866,-10.32227 -6.90069,-6.8815 -10.35157,-15.23764 -10.35157,-25.06835 0,-6.31976 1.55017,-12.2182 4.64844,-17.69532 3.2391,-5.47712 7.60332,-9.75995 13.0957,-12.8496 5.4924,-3.2301 11.40873,-4.84571 17.74609,-4.84571 z" />
  <path
     id="text1"
     style="font-style:normal;font-variant:normal;font-weight:normal;font-stretch:normal;font-size:52.4667px;font-family:'Comic Sans MS';-inkscape-font-specification:'Comic Sans MS';fill:#000000;stroke-width:1.22969"
     d="m 201.79521,421.75788 c -6.22541,0 -11.12669,1.76644 -14.70118,5.29687 -3.55738,3.51338 -5.33593,8.31363 -5.33593,14.40234 0,3.32577 0.47974,6.23455 1.4375,8.72462 0.95775,2.473 2.31653,4.53705 4.07812,6.1914 1.74448,1.6373 3.85799,2.86494 6.33789,3.6836 2.4799,0.81865 5.20771,1.22656 8.1836,1.22656 2.30887,0 4.69345,-0.34956 7.15624,-1.04883 2.4799,-0.71632 4.76307,-1.55077 6.84961,-2.50586 v -16.34766 h -15.26367 v 4.45118 h 10.23633 v 9.33789 c -1.2314,0.51166 -2.66868,0.92985 -4.31055,1.2539 -1.62476,0.32405 -3.25852,0.48633 -4.90039,0.48633 -4.48093,0 -8.01951,-1.36491 -10.61914,-4.09375 -2.59962,-2.74589 -3.90039,-6.58276 -3.90039,-11.51171 0,-4.67314 1.2408,-8.37468 3.72071,-11.10352 2.497,-2.7459 5.8825,-4.11914 10.15819,-4.11914 1.89841,0 3.59214,0.17895 5.08008,0.53711 1.50505,0.3411 2.84725,0.77597 4.02734,1.30468 0.97487,0.44344 1.96751,0.99696 2.97658,1.66211 1.00906,0.66516 1.7784,1.20396 2.30859,1.61329 h 0.46093 v -6.01173 c -2.61672,-1.24502 -5.06126,-2.12506 -7.33594,-2.63671 -2.25756,-0.52872 -4.47247,-0.79297 -6.64452,-0.79297 z m -117.394537,0.69141 v 38.09374 h 9.646488 c 3.506068,0 6.326989,-0.23924 8.464839,-0.71679 2.15495,-0.47755 4.10513,-1.25365 5.84961,-2.32812 2.51411,-1.55203 4.52425,-3.73472 6.0293,-6.54884 1.52214,-2.81411 2.2832,-5.95381 2.2832,-9.41601 0,-3.70098 -0.7279,-6.89707 -2.18164,-9.5918 -1.45374,-2.69472 -3.48045,-4.85241 -6.08008,-6.47266 -1.52215,-0.93803 -3.38553,-1.67246 -5.59179,-2.20117 -2.18916,-0.54576 -5.148556,-0.81835 -8.876963,-0.81835 z m 57.337897,0 v 3.88867 h 5.00195 v 30.3164 h -5.00195 v 3.88867 h 15.08397 v -3.88867 h -5.00195 v -30.3164 h 5.00195 v -3.88867 z m 99.79492,0 v 3.88867 h 5.00195 v 30.3164 h -5.00195 v 3.88867 h 15.08397 v -3.88867 h -5.00194 v -30.3164 h 5.00194 v -3.88867 z m 37.07031,0 v 4.50195 h 13.64844 v 33.59179 h 5.07812 v -33.59179 h 13.64844 v -4.50195 z m 65.41797,0 -13.9043,38.09374 h 5.15625 l 3.7461,-10.61718 h 16.51952 l 3.7461,10.61718 h 5.41407 l -13.90626,-38.09374 z m 44.94531,0 v 38.09374 h 24.16601 v -4.5039 h -19.08593 v -33.58984 z m -299.486329,4.3496 h 4.771485 c 2.360184,0 4.386904,0.17062 6.080084,0.51173 1.69317,0.32404 3.29183,0.91091 4.79687,1.76367 2.06944,1.17681 3.62665,2.7893 4.66992,4.83593 1.04327,2.04663 1.56445,4.56221 1.56445,7.54687 0,2.96761 -0.47974,5.44152 -1.4375,7.41993 -0.94064,1.9784 -2.3594,3.57228 -4.25781,4.7832 -1.52215,0.97215 -3.19735,1.63793 -5.02734,1.99609 -1.812897,0.35816 -3.942981,0.53711 -6.388674,0.53711 h -4.771485 z m 257.798829,0.0762 6.69531,18.70118 h -13.41601 z" />
</svg>
