<?xml version="1.0" encoding="UTF-8" standalone="no"?>
<svg
   version="1.0"
   width="513.1701pt"
   height="507.47421pt"
   viewBox="0 0 513.1701 507.47421"
   preserveAspectRatio="xMidYMid"
   id="svg6"
   sodipodi:docname="Convertio Icon.svg"
   xmlns:inkscape="http://www.inkscape.org/namespaces/inkscape"
   xmlns:sodipodi="http://sodipodi.sourceforge.net/DTD/sodipodi-0.dtd"
   xmlns="http://www.w3.org/2000/svg"
   xmlns:svg="http://www.w3.org/2000/svg">
  <defs
     id="defs6" />
  <sodipodi:namedview
     id="namedview6"
     pagecolor="#ffffff"
     bordercolor="#000000"
     borderopacity="0.25"
     inkscape:showpageshadow="2"
     inkscape:pageopacity="0.0"
     inkscape:pagecheckerboard="0"
     inkscape:deskcolor="#d1d1d1"
     inkscape:document-units="pt" />
  <g
     transform="matrix(0.12833086,0,0,-0.13394089,-72.018629,597.21463)"
     fill="#000000"
     stroke="none"
     id="g6"
     style="fill:#750800">
    <path
       d="m 2393,4453 c -13,-2 -32,-16 -44,-31 -17,-22 -20,-35 -15,-72 6,-43 58,-232 105,-382 l 22,-68 h 103 104 l 10,38 c 6,20 31,109 57,197 25,88 50,178 55,199 12,55 -8,100 -50,115 -31,10 -297,14 -347,4 z"
       id="path1"
        />
    <path
       d="m 1660,3774 c -14,-2 -70,-9 -124,-16 -85,-10 -104,-16 -130,-39 l -31,-27 -3,-1451 c -2,-1577 -5,-1492 51,-1523 22,-11 269,-47 335,-48 24,0 42,8 63,29 l 29,29 v 1497 1497 l -29,29 c -26,25 -36,29 -83,28 -29,-1 -64,-3 -78,-5 z"
       id="path2"
        />
    <path
       d="m 3304,3757 -29,-25 V 2227 722 l 24,-26 c 29,-31 47,-32 226,-11 150,18 187,32 212,77 17,31 18,106 21,1353 2,726 0,1376 -3,1444 -7,115 -9,125 -34,153 -22,25 -40,32 -102,43 -42,8 -123,17 -181,20 -102,7 -105,7 -134,-18 z"
       id="path3"
       />
    <path
       d="m 2120,3690 c -19,-5 -47,-22 -62,-39 l -28,-31 V 2225 830 l 29,-32 c 27,-30 35,-33 112,-39 108,-9 679,-9 786,-1 72,6 86,11 110,35 l 28,27 v 1405 1405 l -26,25 c -14,15 -43,30 -65,35 -48,12 -836,11 -884,0 z"
       id="path4"
       />
    <path
       d="m 1050,3593 c -14,-2 -74,-13 -135,-24 -286,-53 -304,-59 -332,-112 -17,-30 -18,-105 -21,-1187 -2,-635 0,-1179 3,-1208 5,-39 15,-62 36,-87 33,-37 69,-48 305,-90 205,-36 243,-33 272,22 9,16 12,353 12,1325 0,1219 -2,1304 -18,1324 -31,39 -58,47 -122,37 z"
       id="path5"
        />
    <path
       d="m 3981,3587 c -53,-31 -50,34 -51,-1360 0,-1416 -3,-1348 56,-1363 33,-9 114,-1 264,26 222,39 269,57 297,111 10,19 13,292 13,1228 0,1181 0,1204 -20,1236 -26,42 -47,50 -203,80 -72,14 -154,29 -182,35 -98,19 -149,21 -174,7 z"
       id="path6"
        />
  </g>
</svg>
